<?xml version="1.0" standalone="no"?>
<!DOCTYPE svg PUBLIC "-//W3C//DTD SVG 20010904//EN"
 "http://www.w3.org/TR/2001/REC-SVG-20010904/DTD/svg10.dtd">
<svg version="1.0" xmlns="http://www.w3.org/2000/svg"
 width="626.000000pt" height="376.000000pt" viewBox="0 0 626.000000 376.000000"
 preserveAspectRatio="xMidYMid meet">

<g transform="translate(0.000000,376.000000) scale(0.100000,-0.100000)"
fill="#000000" stroke="none">
<path d="M4170 1424 c-13 -33 -13 -74 1 -113 10 -29 14 -31 56 -31 32 0 44 -4
40 -12 -3 -7 -28 -65 -57 -129 -43 -97 -57 -120 -88 -140 -20 -13 -46 -42 -57
-64 l-20 -40 -70 0 c-51 -1 -84 -7 -122 -24 -54 -24 -137 -103 -130 -124 2 -7
19 -13 38 -15 59 -5 65 -10 42 -35 -52 -56 -73 -143 -53 -216 13 -50 76 -123
123 -142 29 -13 13 -15 -163 -19 -107 -3 314 -6 935 -6 622 0 1029 3 905 6
-198 4 -221 7 -194 18 71 30 124 115 124 197 l0 45 45 0 c42 0 45 2 45 28 0
15 -13 55 -30 90 l-29 62 24 0 c30 0 31 11 5 68 -20 45 -63 72 -113 72 -17 0
-39 16 -71 54 l-46 54 0 96 0 97 -30 -16 c-24 -12 -74 -15 -277 -15 -257 0
-315 -7 -333 -40 -5 -10 -10 -43 -10 -73 0 -55 0 -55 45 -82 53 -30 102 -93
111 -140 7 -37 -16 -97 -49 -133 -43 -46 -67 -52 -218 -52 l-141 0 -36 37 -37
37 33 9 c38 12 39 19 13 134 -11 51 -14 86 -8 92 5 5 1 17 -13 31 -18 18 -29
21 -62 16 -36 -6 -40 -5 -34 11 4 10 28 71 54 135 l47 117 22 -21 c23 -22 53
-19 53 6 0 8 -13 24 -29 35 -21 15 -28 27 -24 41 3 12 0 20 -7 20 -6 0 -30 18
-52 41 -44 44 -74 59 -119 59 -22 0 -32 -6 -39 -26z m30 -26 c-5 -23 -6 -58
-2 -77 3 -24 2 -32 -6 -27 -28 17 -26 146 2 146 10 0 11 -10 6 -42z m45 25
c-4 -10 -10 -44 -13 -75 -6 -76 -22 -75 -22 1 0 69 6 91 27 91 11 0 13 -5 8
-17z m89 -51 c51 -47 54 -52 27 -45 -23 6 -35 -21 -17 -36 11 -9 3 -37 -40
-144 -63 -156 -67 -195 -28 -295 48 -122 82 -181 114 -197 22 -11 64 -15 173
-15 144 0 144 0 185 30 103 74 104 192 4 282 -23 21 -42 40 -42 43 0 3 132 5
294 5 l294 0 67 -72 c80 -88 151 -191 176 -259 27 -71 26 -79 -19 -79 l-39 0
-46 93 c-25 51 -64 113 -86 139 -62 70 -87 78 -245 78 -131 0 -138 -1 -161
-24 -48 -48 -46 -157 3 -237 28 -44 29 -49 12 -49 -11 0 -24 -9 -30 -20 -10
-19 -21 -20 -278 -20 -268 0 -268 0 -301 24 -66 49 -117 138 -156 272 -37 126
-34 153 30 299 30 70 55 131 55 136 0 5 -10 9 -21 9 -20 0 -21 4 -16 59 8 95
12 96 91 23z m51 -72 c21 -23 12 -39 -13 -24 -19 12 -29 44 -14 44 5 0 17 -9
27 -20z m42 -56 c-9 -9 -28 6 -21 18 4 6 10 6 17 -1 6 -6 8 -13 4 -17z m868
-181 l-6 -53 -305 0 -305 0 3 63 c3 61 4 62 38 74 23 8 121 12 285 13 138 1
259 5 270 9 17 7 20 4 23 -23 2 -17 1 -55 -3 -83z m-1136 -125 c6 -35 14 -73
17 -85 6 -22 4 -22 -55 9 -33 17 -61 36 -61 42 0 23 62 95 81 96 4 0 12 -28
18 -62z m190 25 c16 -63 43 -204 39 -208 -2 -1 -13 -6 -25 -9 -21 -7 -26 0
-59 71 -19 43 -38 99 -41 125 -5 43 -4 47 18 51 53 10 58 8 68 -30z m-243
-108 c27 -14 59 -35 71 -47 27 -30 93 -179 93 -209 0 -54 -14 -54 -89 -1 -40
28 -105 64 -145 81 -70 29 -215 61 -277 61 -34 0 -35 3 -10 39 72 101 234 136
357 76z m964 -20 l0 -55 125 0 c120 0 126 1 134 22 7 21 10 20 41 -22 32 -44
90 -160 90 -180 0 -6 -79 -10 -226 -10 l-227 0 -33 35 c-52 55 -68 141 -40
209 18 42 39 55 94 56 l42 0 0 -55z m217 29 c16 -12 29 -33 31 -47 l3 -27
-120 0 -121 0 0 51 0 51 89 -4 c72 -2 95 -7 118 -24z m194 -41 c13 -16 12 -17
-3 -4 -10 7 -18 15 -18 17 0 8 8 3 21 -13z m30 -40 c13 -16 12 -17 -3 -4 -17
13 -22 21 -14 21 2 0 10 -8 17 -17z m-1610 -74 c28 -6 72 -21 98 -32 25 -12
49 -20 52 -20 3 1 32 -13 65 -31 l59 -33 0 -65 c0 -54 -4 -71 -27 -104 -44
-63 -90 -88 -168 -92 -80 -5 -131 17 -178 74 -50 60 -63 162 -30 229 9 18 68
85 74 85 2 0 26 -5 55 -11z m466 -158 c13 -7 86 -11 192 -11 160 0 171 -1 181
-20 6 -11 18 -20 28 -20 9 0 30 -7 46 -15 18 -9 56 -15 102 -15 l74 0 0 55 c0
48 2 55 20 55 16 0 20 -7 20 -34 0 -80 54 -166 130 -206 35 -19 27 -19 -545
-19 -534 0 -578 1 -550 16 76 40 124 114 125 191 0 24 3 42 8 40 4 -2 20 -10
35 -18 25 -12 30 -12 38 1 5 8 9 27 9 43 l0 30 33 -31 c17 -17 42 -36 54 -42z
m613 -21 l0 -50 -69 0 c-49 0 -72 4 -81 15 -7 8 -25 15 -41 15 -15 0 -30 4
-33 9 -3 5 30 11 74 13 66 3 83 7 102 26 36 35 48 28 48 -28z m224 28 c-3 -11
2 -30 10 -43 32 -48 102 -20 94 37 l-5 28 85 0 84 0 -4 -59 c-5 -69 -33 -117
-91 -158 -46 -32 -134 -42 -192 -23 -51 17 -117 85 -133 136 -13 45 -16 87 -6
97 4 3 42 6 85 5 72 -2 79 -4 73 -20z"/>
<path d="M5250 1085 c0 -8 2 -15 4 -15 2 0 6 7 10 15 3 8 1 15 -4 15 -6 0 -10
-7 -10 -15z"/>
<path d="M5235 1050 c-3 -5 -2 -10 4 -10 5 0 13 5 16 10 3 6 2 10 -4 10 -5 0
-13 -4 -16 -10z"/>
<path d="M4720 1040 c-13 -8 -12 -10 3 -10 9 0 17 5 17 10 0 12 -1 12 -20 0z"/>
<path d="M4795 1040 c-3 -5 1 -10 9 -10 9 0 16 5 16 10 0 6 -4 10 -9 10 -6 0
-13 -4 -16 -10z"/>
<path d="M4835 1040 c-3 -5 1 -10 9 -10 9 0 16 5 16 10 0 6 -4 10 -9 10 -6 0
-13 -4 -16 -10z"/>
<path d="M4875 1040 c-3 -5 1 -10 9 -10 9 0 16 5 16 10 0 6 -4 10 -9 10 -6 0
-13 -4 -16 -10z"/>
<path d="M4915 1040 c-3 -5 1 -10 9 -10 9 0 16 5 16 10 0 6 -4 10 -9 10 -6 0
-13 -4 -16 -10z"/>
<path d="M4955 1040 c-3 -5 1 -10 9 -10 9 0 16 5 16 10 0 6 -4 10 -9 10 -6 0
-13 -4 -16 -10z"/>
<path d="M4990 1040 c0 -5 7 -10 15 -10 8 0 15 5 15 10 0 6 -7 10 -15 10 -8 0
-15 -4 -15 -10z"/>
<path d="M5030 1040 c0 -5 7 -10 15 -10 8 0 15 5 15 10 0 6 -7 10 -15 10 -8 0
-15 -4 -15 -10z"/>
<path d="M5070 1040 c0 -5 7 -10 15 -10 8 0 15 5 15 10 0 6 -7 10 -15 10 -8 0
-15 -4 -15 -10z"/>
<path d="M5110 1040 c0 -5 7 -10 15 -10 8 0 15 5 15 10 0 6 -7 10 -15 10 -8 0
-15 -4 -15 -10z"/>
<path d="M5155 1040 c-3 -5 1 -10 9 -10 9 0 16 5 16 10 0 6 -4 10 -9 10 -6 0
-13 -4 -16 -10z"/>
<path d="M5195 1040 c-3 -5 1 -10 9 -10 9 0 16 5 16 10 0 6 -4 10 -9 10 -6 0
-13 -4 -16 -10z"/>
<path d="M4758 1033 c7 -3 16 -2 19 1 4 3 -2 6 -13 5 -11 0 -14 -3 -6 -6z"/>
<path d="M5030 730 c0 -6 48 -10 125 -10 77 0 125 4 125 10 0 6 -48 10 -125
10 -77 0 -125 -4 -125 -10z"/>
<path d="M5123 693 c37 -2 97 -2 135 0 37 2 6 3 -68 3 -74 0 -105 -1 -67 -3z"/>
<path d="M5153 653 c37 -2 97 -2 135 0 37 2 6 3 -68 3 -74 0 -105 -1 -67 -3z"/>
<path d="M3864 638 l-19 -23 23 19 c21 18 27 26 19 26 -2 0 -12 -10 -23 -22z"/>
<path d="M3930 629 c0 -5 5 -7 10 -4 6 3 10 8 10 11 0 2 -4 4 -10 4 -5 0 -10
-5 -10 -11z"/>
<path d="M3895 610 c-3 -5 -2 -10 4 -10 5 0 13 5 16 10 3 6 2 10 -4 10 -5 0
-13 -4 -16 -10z"/>
<path d="M3930 580 c-24 -24 -25 -38 -4 -68 16 -24 44 -28 75 -12 27 15 25 64
-3 84 -30 21 -44 20 -68 -4z"/>
<path d="M4040 590 c0 -5 5 -10 11 -10 5 0 7 5 4 10 -3 6 -8 10 -11 10 -2 0
-4 -4 -4 -10z"/>
<path d="M3875 580 c-3 -5 -1 -10 4 -10 6 0 11 5 11 10 0 6 -2 10 -4 10 -3 0
-8 -4 -11 -10z"/>
<path d="M4054 546 c0 -13 4 -22 9 -19 10 6 9 31 -2 37 -5 3 -8 -5 -7 -18z"/>
<path d="M4135 520 c-14 -62 -39 -101 -80 -126 -23 -14 -33 -24 -23 -24 30 0
95 71 108 118 6 24 9 49 7 55 -2 7 -8 -4 -12 -23z"/>
<path d="M4045 499 c-4 -6 -5 -12 -2 -15 2 -3 7 2 10 11 7 17 1 20 -8 4z"/>
<path d="M4015 470 c-3 -5 -1 -10 4 -10 6 0 11 5 11 10 0 6 -2 10 -4 10 -3 0
-8 -4 -11 -10z"/>
<path d="M4059 443 c-13 -16 -12 -17 4 -4 16 13 21 21 13 21 -2 0 -10 -8 -17
-17z"/>
<path d="M5344 546 c0 -13 4 -22 9 -19 10 6 9 31 -2 37 -5 3 -8 -5 -7 -18z"/>
<path d="M5422 509 c-13 -53 -42 -93 -86 -120 -23 -14 -26 -19 -12 -19 30 0
93 71 106 119 6 23 9 48 7 54 -2 6 -9 -9 -15 -34z"/>
<path d="M5335 499 c-4 -6 -5 -12 -2 -15 2 -3 7 2 10 11 7 17 1 20 -8 4z"/>
<path d="M5305 470 c-3 -5 -1 -10 4 -10 6 0 11 5 11 10 0 6 -2 10 -4 10 -3 0
-8 -4 -11 -10z"/>
<path d="M5349 443 c-13 -16 -12 -17 4 -4 16 13 21 21 13 21 -2 0 -10 -8 -17
-17z"/>
<path d="M5702 1003 c48 -2 129 -2 180 0 51 1 12 3 -87 3 -99 0 -141 -2 -93
-3z"/>
<path d="M5748 963 c34 -2 90 -2 125 0 34 2 6 3 -63 3 -69 0 -97 -1 -62 -3z"/>
<path d="M5863 313 c15 -2 39 -2 55 0 15 2 2 4 -28 4 -30 0 -43 -2 -27 -4z"/>
<path d="M6053 313 c15 -2 37 -2 50 0 12 2 0 4 -28 4 -27 0 -38 -2 -22 -4z"/>
</g>
</svg>
